0
SECTION
2
HEADER
9
$INSUNITS
70
4
9
$ACADVER
1
AC1014
9
$HANDSEED
5
FFFF
0
ENDSEC
0
SECTION
2
TABLES
0
TABLE
2
VPORT
5
8
100
AcDbSymbolTable
0
ENDTAB
0
TABLE
2
LTYPE
5
5
100
AcDbSymbolTable
0
LTYPE
5
14
100
AcDbSymbolTableRecord
100
AcDbLinetypeTableRecord
2
BYBLOCK
70
0
0
LTYPE
5
15
100
AcDbSymbolTableRecord
100
AcDbLinetypeTableRecord
2
BYLAYER
70
0
0
ENDTAB
0
TABLE
2
LAYER
5
2
100
AcDbSymbolTable
70
2
0
LAYER
5
50
100
AcDbSymbolTableRecord
100
AcDbLayerTableRecord
2
0
70
0
6
CONTINUOUS
0
ENDTAB
0
TABLE
2
STYLE
5
3
100
AcDbSymbolTable
70
1
0
STYLE
5
11
100
AcDbSymbolTableRecord
100
AcDbTextStyleTableRecord
2
STANDARD
70
0
0
ENDTAB
0
TABLE
2
VIEW
5
6
100
AcDbSymbolTable
70
0
0
ENDTAB
0
TABLE
2
UCS
5
7
100
AcDbSymbolTable
70
0
0
ENDTAB
0
TABLE
2
APPID
5
9
100
AcDbSymbolTable
70
2
0
APPID
5
12
100
AcDbSymbolTableRecord
100
AcDbRegAppTableRecord
2
ACAD
70
0
0
ENDTAB
0
TABLE
2
DIMSTYLE
5
A
100
AcDbSymbolTable
70
1
0
ENDTAB
0
TABLE
2
BLOCK_RECORD
5
1
100
AcDbSymbolTable
70
1
0
BLOCK_RECORD
5
1F
100
AcDbSymbolTableRecord
100
AcDbBlockTableRecord
2
*MODEL_SPACE
0
BLOCK_RECORD
5
1B
100
AcDbSymbolTableRecord
100
AcDbBlockTableRecord
2
*PAPER_SPACE
0
ENDTAB
0
ENDSEC
0
SECTION
2
BLOCKS
0
BLOCK
5
20
100
AcDbEntity
100
AcDbBlockBegin
2
*MODEL_SPACE
0
ENDBLK
5
21
100
AcDbEntity
100
AcDbBlockEnd
0
BLOCK
5
1C
100
AcDbEntity
100
AcDbBlockBegin
2
*PAPER_SPACE
0
ENDBLK
5
1D
100
AcDbEntity
100
AcDbBlockEnd
0
ENDSEC
0
SECTION
2
ENTITIES
0
LINE
5
100
100
AcDbEntity
8
0
100
AcDbLine
10
0
20
0
30
0
11
6.0000000000000009
21
4.0000000000000027
31
0
0
LINE
5
101
100
AcDbEntity
8
0
100
AcDbLine
10
6.0000000000000009
20
4.0000000000000027
30
0
11
12.000000000000002
21
0
31
0
0
LINE
5
102
100
AcDbEntity
8
0
100
AcDbLine
10
6.0000000000000009
20
4.0000000000000027
30
0
11
5.9999999999999947
21
8.0000000000000053
31
0
0
LINE
5
103
100
AcDbEntity
8
0
100
AcDbLine
10
12.000000000000002
20
0
30
0
11
18.000000000000004
21
4.0000000000000027
31
0
0
LINE
5
104
100
AcDbEntity
8
0
100
AcDbLine
10
18.000000000000004
20
4.0000000000000027
30
0
11
17.999999999999996
21
8.0000000000000053
31
0
0
LINE
5
105
100
AcDbEntity
8
0
100
AcDbLine
10
18.000000000000004
20
4.0000000000000027
30
0
11
24.000000000000004
21
0
31
0
0
LINE
5
106
100
AcDbEntity
8
0
100
AcDbLine
10
24.000000000000004
20
0
30
0
11
30.000000000000004
21
4.0000000000000027
31
0
0
LINE
5
107
100
AcDbEntity
8
0
100
AcDbLine
10
30.000000000000004
20
4.0000000000000027
30
0
11
30
21
8.0000000000000053
31
0
0
LINE
5
108
100
AcDbEntity
8
0
100
AcDbLine
10
30.000000000000004
20
4.0000000000000027
30
0
11
36.000000000000007
21
0
31
0
0
LINE
5
109
100
AcDbEntity
8
0
100
AcDbLine
10
36.000000000000007
20
0
30
0
11
42.000000000000014
21
4.0000000000000027
31
0
0
LINE
5
110
100
AcDbEntity
8
0
100
AcDbLine
10
42.000000000000014
20
4.0000000000000027
30
0
11
42
21
8.0000000000000053
31
0
0
LINE
5
111
100
AcDbEntity
8
0
100
AcDbLine
10
42.000000000000014
20
4.0000000000000027
30
0
11
48.000000000000007
21
0
31
0
0
LINE
5
112
100
AcDbEntity
8
0
100
AcDbLine
10
48.000000000000007
20
0
30
0
11
54
21
4.0000000000000027
31
0
0
LINE
5
113
100
AcDbEntity
8
0
100
AcDbLine
10
54
20
4.0000000000000027
30
0
11
54
21
8.0000000000000053
31
0
0
LINE
5
114
100
AcDbEntity
8
0
100
AcDbLine
10
54
20
4.0000000000000027
30
0
11
60.000000000000007
21
0
31
0
0
LINE
5
115
100
AcDbEntity
8
0
100
AcDbLine
10
60.000000000000007
20
0
30
0
11
66.000000000000014
21
4.0000000000000027
31
0
0
LINE
5
116
100
AcDbEntity
8
0
100
AcDbLine
10
66.000000000000014
20
4.0000000000000027
30
0
11
66
21
8.0000000000000053
31
0
0
LINE
5
117
100
AcDbEntity
8
0
100
AcDbLine
10
66.000000000000014
20
4.0000000000000027
30
0
11
72.000000000000014
21
0
31
0
0
LINE
5
118
100
AcDbEntity
8
0
100
AcDbLine
10
0
20
-15.5
30
0
11
6.0000000000000009
21
-11.499999999999996
31
0
0
LINE
5
119
100
AcDbEntity
8
0
100
AcDbLine
10
6.0000000000000009
20
-11.499999999999996
30
0
11
5.9999999999999947
21
-7.4999999999999956
31
0
0
LINE
5
120
100
AcDbEntity
8
0
100
AcDbLine
10
6.0000000000000009
20
-11.499999999999996
30
0
11
12.000000000000002
21
-15.5
31
0
0
LINE
5
121
100
AcDbEntity
8
0
100
AcDbLine
10
12.000000000000002
20
-15.5
30
0
11
18.000000000000004
21
-11.499999999999996
31
0
0
LINE
5
122
100
AcDbEntity
8
0
100
AcDbLine
10
18.000000000000004
20
-11.499999999999996
30
0
11
17.999999999999996
21
-7.4999999999999956
31
0
0
LINE
5
123
100
AcDbEntity
8
0
100
AcDbLine
10
18.000000000000004
20
-11.499999999999996
30
0
11
24.000000000000004
21
-15.5
31
0
0
LINE
5
124
100
AcDbEntity
8
0
100
AcDbLine
10
24.000000000000004
20
-15.5
30
0
11
30.000000000000004
21
-11.499999999999996
31
0
0
LINE
5
125
100
AcDbEntity
8
0
100
AcDbLine
10
30.000000000000004
20
-11.499999999999996
30
0
11
30
21
-7.4999999999999956
31
0
0
LINE
5
126
100
AcDbEntity
8
0
100
AcDbLine
10
30.000000000000004
20
-11.499999999999996
30
0
11
36.000000000000007
21
-15.5
31
0
0
LINE
5
127
100
AcDbEntity
8
0
100
AcDbLine
10
36.000000000000007
20
-15.5
30
0
11
42.000000000000014
21
-11.499999999999996
31
0
0
LINE
5
128
100
AcDbEntity
8
0
100
AcDbLine
10
42.000000000000014
20
-11.499999999999996
30
0
11
42
21
-7.4999999999999956
31
0
0
LINE
5
129
100
AcDbEntity
8
0
100
AcDbLine
10
42.000000000000014
20
-11.499999999999996
30
0
11
48.000000000000007
21
-15.5
31
0
0
LINE
5
130
100
AcDbEntity
8
0
100
AcDbLine
10
48.000000000000007
20
-15.5
30
0
11
54
21
-11.499999999999996
31
0
0
LINE
5
131
100
AcDbEntity
8
0
100
AcDbLine
10
54
20
-11.499999999999996
30
0
11
54
21
-7.4999999999999956
31
0
0
LINE
5
132
100
AcDbEntity
8
0
100
AcDbLine
10
54
20
-11.499999999999996
30
0
11
60.000000000000007
21
-15.5
31
0
0
LINE
5
133
100
AcDbEntity
8
0
100
AcDbLine
10
60.000000000000007
20
-15.5
30
0
11
66.000000000000014
21
-11.499999999999996
31
0
0
LINE
5
134
100
AcDbEntity
8
0
100
AcDbLine
10
66.000000000000014
20
-11.499999999999996
30
0
11
66
21
-7.4999999999999956
31
0
0
LINE
5
135
100
AcDbEntity
8
0
100
AcDbLine
10
66.000000000000014
20
-11.499999999999996
30
0
11
72.000000000000014
21
-15.5
31
0
0
LINE
5
136
100
AcDbEntity
8
0
100
AcDbLine
10
0
20
-31
30
0
11
6.0000000000000009
21
-26.999999999999996
31
0
0
LINE
5
137
100
AcDbEntity
8
0
100
AcDbLine
10
6.0000000000000009
20
-26.999999999999996
30
0
11
5.9999999999999947
21
-23
31
0
0
LINE
5
138
100
AcDbEntity
8
0
100
AcDbLine
10
6.0000000000000009
20
-26.999999999999996
30
0
11
12.000000000000002
21
-31
31
0
0
LINE
5
139
100
AcDbEntity
8
0
100
AcDbLine
10
12.000000000000002
20
-31
30
0
11
18.000000000000004
21
-26.999999999999996
31
0
0
LINE
5
140
100
AcDbEntity
8
0
100
AcDbLine
10
18.000000000000004
20
-26.999999999999996
30
0
11
17.999999999999996
21
-23
31
0
0
LINE
5
141
100
AcDbEntity
8
0
100
AcDbLine
10
18.000000000000004
20
-26.999999999999996
30
0
11
24.000000000000004
21
-31
31
0
0
LINE
5
142
100
AcDbEntity
8
0
100
AcDbLine
10
24.000000000000004
20
-31
30
0
11
30.000000000000004
21
-26.999999999999996
31
0
0
LINE
5
143
100
AcDbEntity
8
0
100
AcDbLine
10
30.000000000000004
20
-26.999999999999996
30
0
11
30
21
-23
31
0
0
LINE
5
144
100
AcDbEntity
8
0
100
AcDbLine
10
30.000000000000004
20
-26.999999999999996
30
0
11
36.000000000000007
21
-31
31
0
0
LINE
5
145
100
AcDbEntity
8
0
100
AcDbLine
10
36.000000000000007
20
-31
30
0
11
42.000000000000014
21
-26.999999999999996
31
0
0
LINE
5
146
100
AcDbEntity
8
0
100
AcDbLine
10
42.000000000000014
20
-26.999999999999996
30
0
11
42
21
-23
31
0
0
LINE
5
147
100
AcDbEntity
8
0
100
AcDbLine
10
42.000000000000014
20
-26.999999999999996
30
0
11
48.000000000000007
21
-31
31
0
0
LINE
5
148
100
AcDbEntity
8
0
100
AcDbLine
10
48.000000000000007
20
-31
30
0
11
54
21
-26.999999999999996
31
0
0
LINE
5
149
100
AcDbEntity
8
0
100
AcDbLine
10
54
20
-26.999999999999996
30
0
11
54
21
-23
31
0
0
LINE
5
150
100
AcDbEntity
8
0
100
AcDbLine
10
54
20
-26.999999999999996
30
0
11
60.000000000000007
21
-31
31
0
0
LINE
5
151
100
AcDbEntity
8
0
100
AcDbLine
10
60.000000000000007
20
-31
30
0
11
66.000000000000014
21
-26.999999999999996
31
0
0
LINE
5
152
100
AcDbEntity
8
0
100
AcDbLine
10
66.000000000000014
20
-26.999999999999996
30
0
11
66
21
-23
31
0
0
LINE
5
153
100
AcDbEntity
8
0
100
AcDbLine
10
66.000000000000014
20
-26.999999999999996
30
0
11
72.000000000000014
21
-31
31
0
0
LINE
5
154
100
AcDbEntity
8
0
100
AcDbLine
10
0
20
-46.5
30
0
11
6.0000000000000009
21
-42.5
31
0
0
LINE
5
155
100
AcDbEntity
8
0
100
AcDbLine
10
6.0000000000000009
20
-42.5
30
0
11
5.9999999999999947
21
-38.5
31
0
0
LINE
5
156
100
AcDbEntity
8
0
100
AcDbLine
10
6.0000000000000009
20
-42.5
30
0
11
12.000000000000002
21
-46.5
31
0
0
LINE
5
157
100
AcDbEntity
8
0
100
AcDbLine
10
12.000000000000002
20
-46.5
30
0
11
18.000000000000004
21
-42.5
31
0
0
LINE
5
158
100
AcDbEntity
8
0
100
AcDbLine
10
18.000000000000004
20
-42.5
30
0
11
17.999999999999996
21
-38.5
31
0
0
LINE
5
159
100
AcDbEntity
8
0
100
AcDbLine
10
18.000000000000004
20
-42.5
30
0
11
24.000000000000004
21
-46.5
31
0
0
LINE
5
160
100
AcDbEntity
8
0
100
AcDbLine
10
24.000000000000004
20
-46.5
30
0
11
30.000000000000004
21
-42.5
31
0
0
LINE
5
161
100
AcDbEntity
8
0
100
AcDbLine
10
30.000000000000004
20
-42.5
30
0
11
30
21
-38.5
31
0
0
LINE
5
162
100
AcDbEntity
8
0
100
AcDbLine
10
30.000000000000004
20
-42.5
30
0
11
36.000000000000007
21
-46.5
31
0
0
LINE
5
163
100
AcDbEntity
8
0
100
AcDbLine
10
36.000000000000007
20
-46.5
30
0
11
42.000000000000014
21
-42.5
31
0
0
LINE
5
164
100
AcDbEntity
8
0
100
AcDbLine
10
42.000000000000014
20
-42.5
30
0
11
42
21
-38.5
31
0
0
LINE
5
165
100
AcDbEntity
8
0
100
AcDbLine
10
42.000000000000014
20
-42.5
30
0
11
48.000000000000007
21
-46.5
31
0
0
LINE
5
166
100
AcDbEntity
8
0
100
AcDbLine
10
48.000000000000007
20
-46.5
30
0
11
54
21
-42.5
31
0
0
LINE
5
167
100
AcDbEntity
8
0
100
AcDbLine
10
54
20
-42.5
30
0
11
54
21
-38.5
31
0
0
LINE
5
168
100
AcDbEntity
8
0
100
AcDbLine
10
54
20
-42.5
30
0
11
60.000000000000007
21
-46.5
31
0
0
LINE
5
169
100
AcDbEntity
8
0
100
AcDbLine
10
60.000000000000007
20
-46.5
30
0
11
66.000000000000014
21
-42.5
31
0
0
LINE
5
170
100
AcDbEntity
8
0
100
AcDbLine
10
66.000000000000014
20
-42.5
30
0
11
66
21
-38.5
31
0
0
LINE
5
171
100
AcDbEntity
8
0
100
AcDbLine
10
66.000000000000014
20
-42.5
30
0
11
72.000000000000014
21
-46.5
31
0
0
LINE
5
172
100
AcDbEntity
8
0
100
AcDbLine
10
0
20
-62
30
0
11
6.0000000000000009
21
-58
31
0
0
LINE
5
173
100
AcDbEntity
8
0
100
AcDbLine
10
6.0000000000000009
20
-58
30
0
11
5.9999999999999947
21
-53.999999999999993
31
0
0
LINE
5
174
100
AcDbEntity
8
0
100
AcDbLine
10
6.0000000000000009
20
-58
30
0
11
12.000000000000002
21
-62
31
0
0
LINE
5
175
100
AcDbEntity
8
0
100
AcDbLine
10
12.000000000000002
20
-62
30
0
11
18.000000000000004
21
-58
31
0
0
LINE
5
176
100
AcDbEntity
8
0
100
AcDbLine
10
18.000000000000004
20
-58
30
0
11
17.999999999999996
21
-53.999999999999993
31
0
0
LINE
5
177
100
AcDbEntity
8
0
100
AcDbLine
10
18.000000000000004
20
-58
30
0
11
24.000000000000004
21
-62
31
0
0
LINE
5
178
100
AcDbEntity
8
0
100
AcDbLine
10
24.000000000000004
20
-62
30
0
11
30.000000000000004
21
-58
31
0
0
LINE
5
179
100
AcDbEntity
8
0
100
AcDbLine
10
30.000000000000004
20
-58
30
0
11
30
21
-53.999999999999993
31
0
0
LINE
5
180
100
AcDbEntity
8
0
100
AcDbLine
10
30.000000000000004
20
-58
30
0
11
36.000000000000007
21
-62
31
0
0
LINE
5
181
100
AcDbEntity
8
0
100
AcDbLine
10
36.000000000000007
20
-62
30
0
11
42.000000000000014
21
-58
31
0
0
LINE
5
182
100
AcDbEntity
8
0
100
AcDbLine
10
42.000000000000014
20
-58
30
0
11
42
21
-53.999999999999993
31
0
0
LINE
5
183
100
AcDbEntity
8
0
100
AcDbLine
10
42.000000000000014
20
-58
30
0
11
48.000000000000007
21
-62
31
0
0
LINE
5
184
100
AcDbEntity
8
0
100
AcDbLine
10
48.000000000000007
20
-62
30
0
11
54
21
-58
31
0
0
LINE
5
185
100
AcDbEntity
8
0
100
AcDbLine
10
54
20
-58
30
0
11
54
21
-53.999999999999993
31
0
0
LINE
5
186
100
AcDbEntity
8
0
100
AcDbLine
10
54
20
-58
30
0
11
60.000000000000007
21
-62
31
0
0
LINE
5
187
100
AcDbEntity
8
0
100
AcDbLine
10
60.000000000000007
20
-62
30
0
11
66.000000000000014
21
-58
31
0
0
LINE
5
188
100
AcDbEntity
8
0
100
AcDbLine
10
66.000000000000014
20
-58
30
0
11
66
21
-53.999999999999993
31
0
0
LINE
5
189
100
AcDbEntity
8
0
100
AcDbLine
10
66.000000000000014
20
-58
30
0
11
72.000000000000014
21
-62
31
0
0
LINE
5
190
100
AcDbEntity
8
0
100
AcDbLine
10
0
20
0
30
0
11
1.2866607112910064e-14
21
-7.75
31
0
0
LINE
5
191
100
AcDbEntity
8
0
100
AcDbLine
10
1.2866607112910064e-14
20
-7.75
30
0
11
0
21
-15.5
31
0
0
LINE
5
192
100
AcDbEntity
8
0
100
AcDbLine
10
0
20
-15.5
30
0
11
-1.2866607112910064e-14
21
-23.25
31
0
0
LINE
5
193
100
AcDbEntity
8
0
100
AcDbLine
10
-1.2866607112910064e-14
20
-23.25
30
0
11
0
21
-31
31
0
0
LINE
5
194
100
AcDbEntity
8
0
100
AcDbLine
10
0
20
-31
30
0
11
1.4843053758100747e-14
21
-38.75
31
0
0
LINE
5
195
100
AcDbEntity
8
0
100
AcDbLine
10
1.4843053758100747e-14
20
-38.75
30
0
11
0
21
-46.5
31
0
0
LINE
5
196
100
AcDbEntity
8
0
100
AcDbLine
10
0
20
-46.5
30
0
11
-1.4843053758100741e-14
21
-54.250000000000007
31
0
0
LINE
5
197
100
AcDbEntity
8
0
100
AcDbLine
10
-1.4843053758100741e-14
20
-54.250000000000007
30
0
11
0
21
-62
31
0
0
ENDSEC
0
SECTION
2
OBJECTS
0
DICTIONARY
5
C
100
AcDbDictionary
3
ACAD_GROUP
350
D
3
ACAD_MLINESTYLE
350
17
0
DICTIONARY
5
D
100
AcDbDictionary
0
DICTIONARY
5
1A
330
C
100
AcDbDictionary
0
DICTIONARY
5
17
100
AcDbDictionary
0
ENDSEC
0
EOF
